# xmcd CD database file
#
# Track frame offsets:
#	150
#	19037
#	40282
#	58562
#	77610
#	94545
#	111455
#	127465
#	160460
#
# Disc length: 2535 seconds
#
# Revision: 0
# Processed by: cddbd v1.5PL3 Copyright (c) Steve Scherf et al.
# Submitted via: CDex 1.51
#
DISCID=7609e509
DTITLE=CHARCOAL FILTER - HAPPY SET
DYEAR=2003
DGENRE=JPop
TTITLE0=虹
TTITLE1=7port
TTITLE2=雨が上がれば夏が始まる
TTITLE3=やさしさライセンス
TTITLE4=イエローキャブリオーレ
TTITLE5=My girl
TTITLE6=皐月
TTITLE7=デモテープ(仮)
TTITLE8=データ
EXTD=YEAR: 2003
EXTT0=
EXTT1=
EXTT2=
EXTT3=
EXTT4=
EXTT5=
EXTT6=
EXTT7=
EXTT8=
PLAYORDER=
